<svg width="107" height="130" xmlns="http://www.w3.org/2000/svg">
    <path d="M151 561.97c-.238.462-.455.939-.719 1.385-.71 1.203-1.545 2.343-2.144 3.6-1.952 4.087-3.751 8.25-5.744 12.315a90.895 90.895 0 0 1-4.416 8.02c-.452.726-.992 1.394-1.55 2.05l-.845.982c-.42.493-.832.992-1.205 1.517-1.777 2.496-3.218 5.273-5.196 7.582-3.078 3.595-6.216 7.231-9.813 10.255-7.952 6.683-17.129 9.95-27.618 9.289l-.586-.037-1.17-.07c-4.283-.254-8.518-.543-12.578-2.232-.504-.21-1.447.122-1.94.518-4.961 3.997-10.664 6.096-16.897 6.49-4.664.294-9.444.67-14.013-.043-3.833-.599-7.579-2.434-11.1-4.25-3.13-1.614-6.036-3.778-8.799-6.01-3.935-3.179-6.735-7.336-8.589-12.075-.266-.68.192-1.939.724-2.58.59-.714 1.439-.372 2.405.068 2.376 1.082 3.643 3.087 4.875 5.1l.336.549c.225.365.451.728.686 1.082 3.119 4.704 7.6 7.48 12.728 8.958 8.749 2.522 17.453 1.461 25.9-1.642 4.562-1.678 4.518-1.868 1.193-5.198-4.377-4.382-6.798-9.613-6.463-15.916.39-7.316 6.37-12.458 13.573-11.92 2.26.169 3.8 1.575 5.278 3.023 3.359 3.289 5.235 7.394 5.89 12.05.678 4.817.803 9.597-1.452 14.126-.544 1.094-.02 1.571 1.116 1.625 1.123.053 2.244.123 3.366.196l3.364.224c10.865.395 20-3.788 28.188-10.702 9.322-7.87 16.552-17.487 22.885-27.876 1.918-3.146 3.757-6.344 5.749-9.441.533-.831 1.406-1.678 2.293-1.953.611-.19 1.515.592 2.288.94Zm-81.72 50.185-4.82 2.78.221.519 4.908-2.725-.31-.574Zm41.633-4.547-8.117 3.726.207.39 8.162-3.521-.252-.595ZM6.317 583.031c4.263 2.137 9.02 2.192 13.492 3.42 2.995.824 5.784 2.157 7.68 4.819.377.531.351 1.363.511 2.055-.674.138-1.388.499-2.013.378a457.178 457.178 0 0 1-13.595-2.838c-1.417-.32-1.673.238-1.84 1.506-.388 2.925-1.003 5.817-1.423 8.739-.181 1.248-.113 2.534-.145 3.803-.002.106.16.228.142.32-.048.238-.09.522-.132.815l-.05.355c-.108.766-.228 1.496-.46 1.536-1.03.179-2.312-.04-3.241-.568-2.018-1.146-2.181-2.96-2.188-4.938v-.46c.002-.692.007-1.4-.055-2.102.338-4.025.848-8.356.99-12.698.05-1.519-.413-2.951 1.24-3.81.339-.176.836-.457 1.087-.332Zm66.935 4.624c-3.953.873-6.878 4.414-7.229 8.658-.382 4.627 2.253 7.48 5.503 9.971.254.195 1.196-.143 1.526-.506 2.712-2.997 3.496-6.676 3.674-10.66-.38-2.05-.72-4.11-1.15-6.149-.267-1.26-1.062-1.592-2.324-1.314Z" style="mix-blend-mode:hard-light" transform="rotate(-40 -646.218 352.606)" fill="red" fill-rule="evenodd" opacity=".797"/>
</svg>